
<!-- Generator: visioncortex VTracer 0.6.4 -->
<svg version="1.1" xmlns="http://www.w3.org/2000/svg" viewBox="0 0 265 105" preserveAspectRatio="xMidYMid meet">
<path d="M0 0 C87.45 0 174.9 0 265 0 C265 34.65 265 69.3 265 105 C177.55 105 90.1 105 0 105 C0 70.35 0 35.7 0 0 Z " fill="#204036" transform="translate(0,0)"/>
<path d="M0 0 C86.13 0 172.26 0 261 0 C261 8.25 261 16.5 261 25 C174.87 25 88.74 25 0 25 C0 16.75 0 8.5 0 0 Z " fill="#203F35" transform="translate(2,77)"/>
<path d="M0 0 C86.13 0 172.26 0 261 0 C261 8.25 261 16.5 261 25 C174.87 25 88.74 25 0 25 C0 16.75 0 8.5 0 0 Z " fill="#1F3F34" transform="translate(2,2)"/>
<path d="M0 0 C87.45 0 174.9 0 265 0 C265 34.65 265 69.3 265 105 C177.55 105 90.1 105 0 105 C0 70.35 0 35.7 0 0 Z M2 2 C2 10.25 2 18.5 2 27 C88.13 27 174.26 27 263 27 C263 18.75 263 10.5 263 2 C176.87 2 90.74 2 2 2 Z M2 29 C2 44.18 2 59.36 2 75 C88.13 75 174.26 75 263 75 C263 59.82 263 44.64 263 29 C176.87 29 90.74 29 2 29 Z M2 77 C2 85.25 2 93.5 2 102 C88.13 102 174.26 102 263 102 C263 93.75 263 85.5 263 77 C176.87 77 90.74 77 2 77 Z " fill="#D0CED6" transform="translate(0,0)"/>
<path d="M0 0 C2.16 1.527 2.16 1.527 4 4 C4.373 6.847 4.516 9.233 4.438 12.062 C4.445 12.782 4.452 13.502 4.459 14.244 C4.423 17.211 4.36 19.444 2.723 21.973 C0.66 23.203 -0.606 23.402 -3 23.375 C-3.681 23.383 -4.361 23.39 -5.062 23.398 C-7 23 -7 23 -8.723 21.973 C-10.732 18.869 -10.473 15.638 -10.438 12.062 C-10.467 10.988 -10.467 10.988 -10.498 9.893 C-10.495 6.383 -10.279 4.375 -8.16 1.527 C-5.211 -0.558 -3.536 -0.589 0 0 Z " fill="#D1D0D7" transform="translate(118,40)"/>
<path d="M0 0 C2.375 1.75 2.375 1.75 4 4 C4 5.32 4 6.64 4 8 C2.68 8 1.36 8 0 8 C-0.66 7.01 -1.32 6.02 -2 5 C-2.66 5 -3.32 5 -4 5 C-4.33 5.99 -4.66 6.98 -5 8 C-4.257 8.289 -3.515 8.578 -2.75 8.875 C-0.433 9.823 1.779 10.848 4 12 C4.358 19.284 4.358 19.284 3 22 C-0.248 23.624 -3.449 23.547 -7 23 C-9 21.75 -9 21.75 -10 20 C-10 18.68 -10 17.36 -10 16 C-8.35 16 -6.7 16 -5 16 C-5 16.99 -5 17.98 -5 19 C-3.68 18.67 -2.36 18.34 -1 18 C-1 17.01 -1 16.02 -1 15 C-3.97 13.35 -6.94 11.7 -10 10 C-10.322 6.463 -10.413 4.604 -8.375 1.625 C-5.288 -0.487 -3.672 -0.612 0 0 Z " fill="#E1DBE2" transform="translate(78,40)"/>
<path d="M0 0 C1.485 0.99 1.485 0.99 3 2 C2.67 2.66 2.34 3.32 2 4 C1.01 3.67 0.02 3.34 -1 3 C-0.67 2.01 -0.34 1.02 0 0 Z M-2 3 C-2 6 -2 6 -2 6 Z M5 3 C5.99 3.33 6.98 3.66 8 4 C7.67 4.66 7.34 5.32 7 6 C6.34 5.67 5.68 5.34 5 5 C5 4.34 5 3.68 5 3 Z M3 4 C3.66 4.33 4.32 4.66 5 5 C4.34 6.32 3.68 7.64 3 9 C2.67 8.34 2.34 7.68 2 7 C2.33 6.01 2.66 5.02 3 4 Z M-4 6 C-4 9 -4 9 -4 9 Z M8 6 C8.99 6.495 8.99 6.495 10 7 C9.67 7.66 9.34 8.32 9 9 C8.67 8.01 8.34 7.02 8 6 Z M5 7 C5.99 7.495 5.99 7.495 7 8 C6.67 8.66 6.34 9.32 6 10 C5.67 9.01 5.34 8.02 5 7 Z M-6 9 C-6 12 -6 12 -6 12 Z M-2 9 C-0.68 9 0.64 9 2 9 C2.33 10.65 2.66 12.3 3 14 C5.97 14.495 5.97 14.495 9 15 C9.33 14.34 9.66 13.68 10 13 C10.66 13.33 11.32 13.66 12 14 C12.33 13.34 12.66 12.68 13 12 C13.66 13.65 14.32 15.3 15 17 C6.75 17 -1.5 17 -10 17 C-9.34 15.35 -8.68 13.7 -8 12 C-7.34 12.66 -6.68 13.32 -6 14 C-5.422 13.175 -4.845 12.35 -4.25 11.5 C-3.507 10.675 -2.765 9.85 -2 9 Z M10 9 C10.99 9.495 10.99 9.495 12 10 C11.67 10.66 11.34 11.32 11 12 C10.67 11.01 10.34 10.02 10 9 Z M7 10 C7.99 10.495 7.99 10.495 9 11 C8.67 11.66 8.34 12.32 8 13 C7.67 12.01 7.34 11.02 7 10 Z " fill="#D4CFD9" transform="translate(130,6)"/>
<path d="M0 0 C4.29 0 8.58 0 13 0 C13.33 1.32 13.66 2.64 14 4 C12.35 4.33 10.7 4.66 9 5 C9 10.94 9 16.88 9 23 C7.68 23 6.36 23 5 23 C5 17.06 5 11.12 5 5 C3.35 5 1.7 5 0 5 C0 3.35 0 1.7 0 0 Z " fill="#EAE1E9" transform="translate(183,40)"/>
<path d="M0 0 C2.64 0 5.28 0 8 0 C8.33 1.65 8.66 3.3 9 5 C8.01 5 7.02 5 6 5 C6 9.62 6 14.24 6 19 C6.99 19 7.98 19 9 19 C9 20.32 9 21.64 9 23 C6.03 23 3.06 23 0 23 C0 21.68 0 20.36 0 19 C0.66 19 1.32 19 2 19 C2 14.38 2 9.76 2 5 C1.34 5 0.68 5 0 5 C0 3.35 0 1.7 0 0 Z " fill="#E2DCE3" transform="translate(168,40)"/>
<path d="M0 0 C1.32 0 2.64 0 4 0 C4.66 2.97 5.32 5.94 6 9 C8.762 6.238 8.579 3.793 9 0 C10.32 0 11.64 0 13 0 C13.315 5.99 12.682 9.636 10 15 C7.69 15 5.38 15 3 15 C0.318 9.636 -0.315 5.99 0 0 Z " fill="#E3DDE4" transform="translate(148,40)"/>
<path d="M0 0 C1.32 0 2.64 0 4 0 C4 7.59 4 15.18 4 23 C2.68 23 1.36 23 0 23 C0 20.03 0 17.06 0 14 C-1.65 14 -3.3 14 -5 14 C-5 12.68 -5 11.36 -5 10 C-3.35 10 -1.7 10 0 10 C0 6.7 0 3.4 0 0 Z " fill="#E8E0E7" transform="translate(98,40)"/>
<path d="M0 0 C0.043 1.666 0.041 3.334 0 5 C-0.33 5.33 -0.66 5.66 -1 6 C-1.1 7.915 -1.13 9.833 -1.125 11.75 C-1.128 12.797 -1.13 13.843 -1.133 14.922 C-1.012 17.732 -0.638 20.266 0 23 C-2.867 22.427 -3.861 22.139 -6 20 C-6.253 17.326 -6.37 14.8 -6.375 12.125 C-6.399 11.404 -6.424 10.684 -6.449 9.941 C-6.469 6.359 -6.291 4.384 -4.102 1.492 C-2 0 -2 0 0 0 Z " fill="#EBE2E9" transform="translate(114,40)"/>
<path d="M0 0 C3.189 -0.354 4.616 -0.26 7.312 1.562 C9.642 4.928 9.573 6.99 9 11 C7.312 13.438 7.312 13.438 5 15 C2.25 15.25 2.25 15.25 0 15 C0 13.35 0 11.7 0 10 C1.32 10 2.64 10 4 10 C4 8.35 4 6.7 4 5 C2.68 5 1.36 5 0 5 C0 3.35 0 1.7 0 0 Z " fill="#D4D3DA" transform="translate(133,40)"/>
<path d="M0 0 C1.32 0 2.64 0 4 0 C4 7.59 4 15.18 4 23 C2.68 23 1.36 23 0 23 C0 15.41 0 7.82 0 0 Z " fill="#EBE3E9" transform="translate(128,40)"/>
<path d="M0 0 C1.32 0 2.64 0 4 0 C4 7.59 4 15.18 4 23 C2.68 23 1.36 23 0 23 C0 15.41 0 7.82 0 0 Z " fill="#E8E0E7" transform="translate(88,40)"/>
<path d="M0 0 C0.99 0.33 1.98 0.66 3 1 C3 5.62 3 10.24 3 15 C2.01 15.33 1.02 15.66 0 16 C-2 14 -2 14 -2.266 11.25 C-2.26 10.178 -2.255 9.105 -2.25 8 C-2.255 6.928 -2.26 5.855 -2.266 4.75 C-2 2 -2 2 0 0 Z " fill="#204137" transform="translate(114,44)"/>
<path d="M0 0 C4.29 0 8.58 0 13 0 C13.33 1.32 13.66 2.64 14 4 C8.805 6.208 5.417 5.934 0 5 C0 3.35 0 1.7 0 0 Z " fill="#CACCD2" transform="translate(183,40)"/>
<path d="M0 0 C3.536 0.536 3.536 0.536 5 2 C5.188 5.438 5.188 5.438 5 9 C4.34 9.66 3.68 10.32 3 11 C-0.536 10.464 -0.536 10.464 -2 9 C-2.188 5.562 -2.188 5.562 -2 2 C-1.34 1.34 -0.68 0.68 0 0 Z " fill="#657979" transform="translate(85,84)"/>
<path d="M0 0 C2.125 0.375 2.125 0.375 4 1 C5.108 4.325 4.845 6.622 4 10 C2.125 10.625 2.125 10.625 0 11 C-2 9 -2 9 -2.25 5.5 C-2 2 -2 2 0 0 Z " fill="#677C7D" transform="translate(101,84)"/>
<path d="M0 0 C0.33 1.32 0.66 2.64 1 4 C1.99 4 2.98 4 4 4 C4 4.66 4 5.32 4 6 C4.66 5.67 5.32 5.34 6 5 C7.707 4.93 9.417 4.916 11.125 4.938 C12.035 4.947 12.945 4.956 13.883 4.965 C14.931 4.982 14.931 4.982 16 5 C16.33 5.66 16.66 6.32 17 7 C8.75 7 0.5 7 -8 7 C-7.67 6.34 -7.34 5.68 -7 5 C-6.381 4.876 -5.763 4.753 -5.125 4.625 C-2.326 3.802 -1.547 2.398 0 0 Z " fill="#99A8B0" transform="translate(128,16)"/>
<path d="M0 0 C0.99 0 1.98 0 3 0 C4.316 3.62 5 6.096 5 10 C4.34 10 3.68 10 3 10 C3 9.34 3 8.68 3 8 C1.68 8 0.36 8 -1 8 C-1.33 8.66 -1.66 9.32 -2 10 C-1.125 2.25 -1.125 2.25 0 0 Z " fill="#A8B1B9" transform="translate(117,84)"/>
<path d="M0 0 C1.65 0 3.3 0 5 0 C5.66 1.32 6.32 2.64 7 4 C6.34 4.66 5.68 5.32 5 6 C3.68 6 2.36 6 1 6 C0.67 7.32 0.34 8.64 0 10 C0 6.7 0 3.4 0 0 Z M5 6 C5.99 6.495 5.99 6.495 7 7 C7 7.99 7 8.98 7 10 C6.34 10 5.68 10 5 10 C5 8.68 5 7.36 5 6 Z " fill="#BEBFC9" transform="translate(191,84)"/>
<path d="M0 0 C0.99 0.66 1.98 1.32 3 2 C2.812 4.375 2.812 4.375 2 7 C-0.375 8.062 -0.375 8.062 -3 9 C-4.803 11.013 -4.803 11.013 -6 13 C-6.66 12.67 -7.32 12.34 -8 12 C-5.36 8.04 -2.72 4.08 0 0 Z " fill="#25463E" transform="translate(130,8)"/>
<path d="M0 0 C1.98 0.495 1.98 0.495 4 1 C3.01 1.33 2.02 1.66 1 2 C0.34 2.66 -0.32 3.32 -1 4 C-0.67 2.68 -0.34 1.36 0 0 Z M0 4 C2.475 4.99 2.475 4.99 5 6 C4.67 7.65 4.34 9.3 4 11 C2.68 10.67 1.36 10.34 0 10 C-1.125 6.25 -1.125 6.25 0 4 Z " fill="#839093" transform="translate(53,84)"/>
<path d="M0 0 C1.65 0 3.3 0 5 0 C5 0.99 5 1.98 5 3 C5.99 3.33 6.98 3.66 8 4 C8 4.99 8 5.98 8 7 C3.526 7.363 3.526 7.363 1.188 5.75 C0 4 0 4 0 0 Z " fill="#D0CFD6" transform="translate(68,56)"/>
<path d="M0 0 C1.65 0 3.3 0 5 0 C5 2.31 5 4.62 5 7 C3.35 7 1.7 7 0 7 C0 4.69 0 2.38 0 0 Z " fill="#D1CFD6" transform="translate(152,56)"/>
<path d="M0 0 C0.33 1.32 0.66 2.64 1 4 C2.32 4 3.64 4 5 4 C5 5.65 5 7.3 5 9 C3.68 9 2.36 9 1 9 C0.67 10.32 0.34 11.64 0 13 C0 8.71 0 4.42 0 0 Z " fill="#1F4036" transform="translate(132,41)"/>
<path d="M0 0 C2.468 1.152 4.048 2.048 6 4 C6 5.32 6 6.64 6 8 C4.68 8 3.36 8 2 8 C-0.152 4.772 -0.201 3.716 0 0 Z " fill="#E8E0E7" transform="translate(76,40)"/>
<path d="M0 0 C0.99 0.33 1.98 0.66 3 1 C4.188 3.562 4.188 3.562 5 6 C3.02 6 1.04 6 -1 6 C-1.66 4.68 -2.32 3.36 -3 2 C-2.01 1.34 -1.02 0.68 0 0 Z " fill="#1E3E34" transform="translate(134,15)"/>
<path d="M0 0 C3.698 1.233 3.935 2.201 5.688 5.562 C6.124 6.389 6.561 7.215 7.012 8.066 C7.338 8.704 7.664 9.343 8 10 C3.861 8.191 2.279 5.906 0 2 C0 1.34 0 0.68 0 0 Z M-1 2 C-1 2.99 -1 3.98 -1 5 C-1.99 5.495 -1.99 5.495 -3 6 C-2.34 4.68 -1.68 3.36 -1 2 Z " fill="#2B4D47" transform="translate(135,11)"/>
<path d="M0 0 C0.66 0 1.32 0 2 0 C2 3.3 2 6.6 2 10 C1.01 9.67 0.02 9.34 -1 9 C-1.688 6.938 -1.688 6.938 -2 5 C-1.67 5 -1.34 5 -1 5 C-0.67 3.35 -0.34 1.7 0 0 Z " fill="#91A3AA" transform="translate(136,84)"/>
<path d="M0 0 C2.062 0.438 2.062 0.438 4 1 C4 2.98 4 4.96 4 7 C3.34 6.67 2.68 6.34 2 6 C1.01 6 0.02 6 -1 6 C-1.043 4.334 -1.041 2.666 -1 1 C-0.67 0.67 -0.34 0.34 0 0 Z M1 1 C1.33 1.66 1.66 2.32 2 3 C2.33 2.34 2.66 1.68 3 1 C2.34 1 1.68 1 1 1 Z " fill="#8F9EA5" transform="translate(180,12)"/>
<path d="M0 0 C1.32 0.66 2.64 1.32 4 2 C4 2.66 4 3.32 4 4 C4.99 4.33 5.98 4.66 7 5 C4.394 5.931 3.358 6.149 0.75 5.062 C0.172 4.712 -0.405 4.361 -1 4 C-0.67 2.68 -0.34 1.36 0 0 Z " fill="#23443B" transform="translate(74,44)"/>
<path d="M0 0 C1 3 1 3 1 7 C-1.97 7 -4.94 7 -8 7 C-7.67 6.34 -7.34 5.68 -7 5 C-6.381 4.876 -5.763 4.753 -5.125 4.625 C-2.326 3.802 -1.547 2.398 0 0 Z " fill="#75898C" transform="translate(128,16)"/>
<path d="M0 0 C1.65 0.33 3.3 0.66 5 1 C4.34 2.32 3.68 3.64 3 5 C1.68 4.34 0.36 3.68 -1 3 C-0.67 2.01 -0.34 1.02 0 0 Z " fill="#2A4C45" transform="translate(54,85)"/>
<path d="M0 0 C1.32 0 2.64 0 4 0 C4 1.32 4 2.64 4 4 C2.68 4 1.36 4 0 4 C0 2.68 0 1.36 0 0 Z " fill="#2A4C47" transform="translate(192,85)"/>
<path d="M0 0 C1.32 0.66 2.64 1.32 4 2 C4 2.66 4 3.32 4 4 C2.35 3.67 0.7 3.34 -1 3 C-0.67 2.01 -0.34 1.02 0 0 Z " fill="#648084" transform="translate(167,16)"/>
<path d="M0 0 C2 2 2 2 2 5 C1.01 5 0.02 5 -1 5 C-0.67 3.35 -0.34 1.7 0 0 Z " fill="#22433A" transform="translate(118,85)"/>
<path d="M0 0 C1.938 0.812 1.938 0.812 4 2 C4.33 2.99 4.66 3.98 5 5 C3.062 4.188 3.062 4.188 1 3 C0.67 2.01 0.34 1.02 0 0 Z " fill="#22433B" transform="translate(138,16)"/>
<path d="M0 0 C0.66 0.33 1.32 0.66 2 1 C2 1.66 2 2.32 2 3 C1.01 3 0.02 3 -1 3 C-0.67 2.01 -0.34 1.02 0 0 Z " fill="#486866" transform="translate(130,19)"/>
</svg>