<?xml version="1.0" encoding="UTF-8"?>
<svg version="1.1" xmlns="http://www.w3.org/2000/svg" width="248" height="225">
<path d="M0 0 C81.84 0 163.68 0 248 0 C248 74.25 248 148.5 248 225 C166.16 225 84.32 225 0 225 C0 150.75 0 76.5 0 0 Z " fill="#CACAC9" transform="translate(0,0)"/>
<path d="M0 0 C3.9618914 1.76084062 8.01467775 4.0293555 10 8 C10.07033769 9.87379605 10.0843022 11.75001102 10.0625 13.625 C10.05347656 14.62789062 10.04445312 15.63078125 10.03515625 16.6640625 C10.02355469 17.43492188 10.01195312 18.20578125 10 19 C11.15371094 18.96390625 12.30742188 18.9278125 13.49609375 18.890625 C17.8911719 18.89449476 21.82402637 19.64824352 26.0625 20.75 C27.06506836 20.98589844 27.06506836 20.98589844 28.08789062 21.2265625 C42.3740932 24.83629299 55.14801445 35.94877721 63.0078125 48.10546875 C71.63252891 63.20774414 73.6190075 79.98886746 69.09765625 96.8125 C65.39384285 107.56805778 60.13032715 116.08325413 52 124 C51.39800781 124.63421875 50.79601562 125.2684375 50.17578125 125.921875 C41.8740223 134.06156057 29.5044792 139.13942872 18 140 C16.74960938 140.10441406 15.49921875 140.20882812 14.2109375 140.31640625 C-0.42749321 141.13368407 -15.22081471 137.45380779 -26.7109375 128.0625 C-27.46632813 127.381875 -28.22171875 126.70125 -29 126 C-29.73476562 125.360625 -30.46953125 124.72125 -31.2265625 124.0625 C-36.32647658 119.32550115 -39.64041417 114.04725449 -43 108 C-43.721875 106.9275 -44.44375 105.855 -45.1875 104.75 C-51.99761658 92.55447743 -51.60497102 75.46524293 -48.171875 62.33203125 C-42.14730791 45.20217882 -31.1882937 32.94952993 -15.25 24.1875 C-8.55138051 21.0248731 -1.19666216 19.59826616 6 18 C5.4946875 17.50371094 4.989375 17.00742187 4.46875 16.49609375 C-0.88178528 10.90138721 -0.88178528 10.90138721 -1.5 6.1875 C-1 3 -1 3 0 0 Z " fill="#CB9609" transform="translate(110,7)"/>
<path d="M0 0 C2.5 0.125 2.5 0.125 3.5 1.125 C4.17847156 5.49167665 4.6216871 9.88554501 5.0769043 14.28027344 C5.23369506 15.75751866 5.39968538 17.23381703 5.57495117 18.70898438 C5.82713642 20.83294985 6.05135966 22.95824178 6.26953125 25.0859375 C6.40979736 26.36259277 6.55006348 27.63924805 6.69458008 28.95458984 C6.5 32.125 6.5 32.125 4.64697266 33.98925781 C3.93847168 34.36405273 3.2299707 34.73884766 2.5 35.125 C1.80003906 35.52460937 1.10007812 35.92421875 0.37890625 36.3359375 C-6.41222384 39.74868078 -13.38508342 42.46739682 -20.5 45.125 C-21.32886719 45.52332031 -22.15773437 45.92164063 -23.01171875 46.33203125 C-26.40848925 47.41451855 -28.09994818 47.25835061 -31.5 46.125 C-34.04348125 44.14740216 -36.18781967 41.85873569 -38.375 39.5 C-39.60342361 38.21808915 -40.83387837 36.93812144 -42.06640625 35.66015625 C-42.65437988 35.04672363 -43.24235352 34.43329102 -43.84814453 33.80126953 C-46.45329483 31.15761568 -49.26043694 28.78767463 -52.14453125 26.45703125 C-53.5 25.125 -53.5 25.125 -54.5 22.125 C-55.38042969 22.64191406 -56.26085937 23.15882812 -57.16796875 23.69140625 C-58.34071663 24.35752704 -59.51391795 25.02284997 -60.6875 25.6875 C-61.5547168 26.20086914 -61.5547168 26.20086914 -62.43945312 26.72460938 C-65.33534396 28.34434493 -67.08068001 29.1658683 -70.42578125 28.83984375 C-71.11027344 28.60394531 -71.79476562 28.36804688 -72.5 28.125 C-72.45703125 25.8984375 -72.45703125 25.8984375 -71.5 23.125 C-69.04190842 21.39929517 -66.84383534 20.07692523 -64.1875 18.75 C-63.51009766 18.38261719 -62.83269531 18.01523438 -62.13476562 17.63671875 C-57.23317522 15.09728286 -57.23317522 15.09728286 -54.61425781 15.19628906 C-51.43293739 16.59371896 -49.3676544 19.01155563 -47.03515625 21.5078125 C-45.97762772 22.60326458 -44.91967196 23.69830434 -43.86132812 24.79296875 C-42.20531171 26.52357606 -40.55443933 28.25855053 -38.91137695 30.00146484 C-37.31991639 31.68341137 -35.7104052 33.34630489 -34.09765625 35.0078125 C-33.36773216 35.7983049 -33.36773216 35.7983049 -32.62306213 36.60476685 C-31.07751734 38.25232371 -31.07751734 38.25232371 -28.5 40.125 C-24.7451091 39.96882913 -21.97545414 38.50286731 -18.6875 36.75 C-12.72063782 33.67777632 -7.12537245 31.45007449 -0.5 30.125 C-1.49 19.235 -1.49 19.235 -2.5 8.125 C-10.64620906 11.40472622 -10.64620906 11.40472622 -18.5625 15.1875 C-24.41831652 18.20748085 -31.00132472 20.91015755 -37.5 22.125 C-38.5 21.125 -38.5 21.125 -38.5625 18.5625 C-38.541875 17.758125 -38.52125 16.95375 -38.5 16.125 C-36.14648632 15.01942408 -33.7922159 13.91551018 -31.4375 12.8125 C-30.78072266 12.50376953 -30.12394531 12.19503906 -29.44726562 11.87695312 C-21.82029198 8.30767974 -14.07705767 5.17332464 -6.1953125 2.2109375 C-0.80800821 0.04040041 -0.80800821 0.04040041 0 0 Z " fill="#CBC7BC" transform="translate(143.5,58.875)"/>
<path d="M0 0 C4.06321581 1.56277531 7.01688254 3.03376507 9 7 C9.55202481 11.25847709 9.27069422 13.46863726 7.3125 17.3125 C3.94192204 21.22965817 1.59843097 21.79656333 -3.4375 22.4375 C-8.1958924 21.85313602 -9.64663763 20.35336237 -13 17 C-14.76834391 13.46331217 -14.77838821 9.84047738 -14 6 C-10.46007411 0.82141405 -6.21902497 -1.01765863 0 0 Z " fill="#080808" transform="translate(110,175)"/>
<path d="M0 0 C12.20921906 -0.49330178 12.20921906 -0.49330178 15.88671875 1.80078125 C18 4 18 4 18.625 7.4375 C18 11 18 11 16 13.9375 C11.96968211 16.70834355 9.80160858 16.40691598 5 16 C5 17.98 5 19.96 5 22 C3.35 22 1.7 22 0 22 C0 14.74 0 7.48 0 0 Z " fill="#050505" transform="translate(122,175)"/>
<path d="M0 0 C1.65 0 3.3 0 5 0 C5 2.97 5 5.94 5 9 C7.97 9 10.94 9 14 9 C14 6.03 14 3.06 14 0 C15.98 0 17.96 0 20 0 C20 7.26 20 14.52 20 22 C18.02 22 16.04 22 14 22 C14 19.36 14 16.72 14 14 C11.36 14 8.72 14 6 14 C6 16.64 6 19.28 6 22 C4.02 22 2.04 22 0 22 C0 14.74 0 7.48 0 0 Z " fill="#0E0E0E" transform="translate(73,175)"/>
<path d="M0 0 C1.0209375 0.495 1.0209375 0.495 2.0625 1 C1.4025 2.32 0.7425 3.64 0.0625 5 C-2.9075 4.67 -5.8775 4.34 -8.9375 4 C-6.15408356 7.22138586 -6.15408356 7.22138586 -2.3125 8.25 C1.0625 10 1.0625 10 2.1875 13.5 C2.0625 17 2.0625 17 0.8125 18.875 C-3.01048069 21.33263044 -6.51222006 21.30519172 -10.9375 21 C-13.875 19.5 -13.875 19.5 -15.9375 18 C-15.6075 16.68 -15.2775 15.36 -14.9375 14 C-14.03 14.33 -13.1225 14.66 -12.1875 15 C-8.86704193 16.19605723 -8.86704193 16.19605723 -4.9375 16 C-4.6075 15.01 -4.2775 14.02 -3.9375 13 C-5.2678125 12.8453125 -5.2678125 12.8453125 -6.625 12.6875 C-10.14888772 11.95612708 -12.23247652 11.38678542 -14.9375 9 C-15.5625 5.5 -15.5625 5.5 -14.9375 2 C-10.60317983 -2.0716341 -5.40378048 -1.83958484 0 0 Z " fill="#0A0A0A" transform="translate(67.9375,176)"/>
<path d="M0 0 C3 2.0625 3 2.0625 5 5 C5.7878128 9.4117517 5.52975133 11.22192774 3 14.9375 C-1.15080314 17.79117716 -3.0301078 17.7099846 -8 17 C-10.5 15.5625 -10.5 15.5625 -12 13 C-12.76004105 8.68518361 -12.73570183 5.25682396 -10.5 1.4375 C-6.99753422 -0.57641782 -3.87856287 -0.87555677 0 0 Z " fill="#CBC7BD" transform="translate(126,108)"/>
<path d="M0 0 C2.5 1.4375 2.5 1.4375 4 4 C4.76004105 8.31481639 4.73570183 11.74317604 2.5 15.5625 C-1.01992606 17.58645748 -4.03315519 17.83083813 -8 17 C-11.34425629 14.42749516 -12.81699852 12.37251107 -13.375 8.1875 C-13 5 -13 5 -11 2.125 C-6.85436985 -0.81148802 -5.00671711 -0.7152453 0 0 Z " fill="#CBC7BE" transform="translate(156,95)"/>
<path d="M0 0 C1.65 0 3.3 0 5 0 C9 6.75 9 6.75 9 9 C9.66 9 10.32 9 11 9 C11.28875 8.071875 11.5775 7.14375 11.875 6.1875 C13 3 13 3 15 0 C17.625 -0.1875 17.625 -0.1875 20 0 C18.94580995 3.51396683 17.68304198 6.66320275 15.9375 9.875 C13.82681556 13.93944066 13.32484062 17.45223129 13 22 C11.02 22 9.04 22 7 22 C6.91363281 21.39414063 6.82726562 20.78828125 6.73828125 20.1640625 C5.7322595 14.16485021 3.94339087 9.36480645 1.0234375 4.03125 C0 2 0 2 0 0 Z " fill="#0A0A0A" transform="translate(141,175)"/>
<path d="M0 0 C5.94 0 11.88 0 18 0 C18 1.32 18 2.64 18 4 C16.02 4 14.04 4 12 4 C12 9.94 12 15.88 12 22 C10.02 22 8.04 22 6 22 C6 16.06 6 10.12 6 4 C4.02 4 2.04 4 0 4 C0 2.68 0 1.36 0 0 Z " fill="#090909" transform="translate(172,175)"/>
<path d="M0 0 C3.9618914 1.76084062 8.01467775 4.0293555 10 8 C10.07033769 9.87379605 10.0843022 11.75001102 10.0625 13.625 C10.05347656 14.62789062 10.04445313 15.63078125 10.03515625 16.6640625 C10.02355469 17.43492188 10.01195313 18.20578125 10 19 C12.64 19 15.28 19 18 19 C18 19.33 18 19.66 18 20 C7.605 20.495 7.605 20.495 -3 21 C-3 20.67 -3 20.34 -3 20 C-0.03 19.34 2.94 18.68 6 18 C5.4946875 17.50371094 4.989375 17.00742187 4.46875 16.49609375 C-0.88178528 10.90138721 -0.88178528 10.90138721 -1.5 6.1875 C-1 3 -1 3 0 0 Z " fill="#CBA02C" transform="translate(110,7)"/>
<path d="M0 0 C2.3125 0.9375 2.3125 0.9375 4.3125 3.9375 C4.78187082 7.61423806 4.75659864 9.29602418 2.625 12.375 C0.3125 13.9375 0.3125 13.9375 -2.25 13.9375 C-5.21376684 12.72159566 -6.19655836 11.76244206 -7.6875 8.9375 C-8.1875 6.4375 -8.1875 6.4375 -7.6875 3.9375 C-5.14416114 1.17616067 -3.81872524 -0.08880756 0 0 Z " fill="#BDBDBD" transform="translate(108.6875,179.0625)"/>
<path d="M0 0 C1.65 0 3.3 0 5 0 C5 7.26 5 14.52 5 22 C3.35 22 1.7 22 0 22 C0 14.74 0 7.48 0 0 Z " fill="#040404" transform="translate(164,175)"/>
<path d="M0 0 C0.33 0 0.66 0 1 0 C1 7.26 1 14.52 1 22 C0.67 22 0.34 22 0 22 C-0.12375 21.2575 -0.2475 20.515 -0.375 19.75 C-0.9569895 17.18924619 -1.80421396 15.31185302 -3 13 C-3 12.34 -3 11.68 -3 11 C-3.63808594 10.81824219 -4.27617188 10.63648438 -4.93359375 10.44921875 C-5.75988281 10.19785156 -6.58617188 9.94648438 -7.4375 9.6875 C-8.26121094 9.44386719 -9.08492187 9.20023438 -9.93359375 8.94921875 C-10.61550781 8.63597656 -11.29742187 8.32273438 -12 8 C-12.33 7.01 -12.66 6.02 -13 5 C-12.06027344 5.03480469 -12.06027344 5.03480469 -11.1015625 5.0703125 C-9.87566406 5.09738281 -9.87566406 5.09738281 -8.625 5.125 C-7.40683594 5.15980469 -7.40683594 5.15980469 -6.1640625 5.1953125 C-3.78657757 5.21370051 -3.78657757 5.21370051 -2 3 C-1.34 2.01 -0.68 1.02 0 0 Z " fill="#BEBEBE" transform="translate(72,175)"/>
<path d="M0 0 C0.99 0 1.98 0 3 0 C3.46077348 9.06187845 3.46077348 9.06187845 0 13 C-2.6875 13.8125 -2.6875 13.8125 -5 14 C-5.29557392 8.97524332 -5.0282379 6.07647409 -2 2 C-1.34 1.34 -0.68 0.68 0 0 Z " fill="#CB9A18" transform="translate(126,9)"/>
<path d="M0 0 C3.375 -0.125 3.375 -0.125 7 0 C7.66 0.66 8.32 1.32 9 2 C8.94140625 3.875 8.94140625 3.875 8.5625 6 C7.94303456 9.10060539 7.94303456 9.10060539 9 12 C8.01 11.67 7.02 11.34 6 11 C5.67 10.34 5.34 9.68 5 9 C2.97536745 8.34786708 2.97536745 8.34786708 1 8 C0.67 9.32 0.34 10.64 0 12 C0 8.04 0 4.08 0 0 Z " fill="#171717" transform="translate(127,210)"/>
<path d="M0 0 C2.875 -0.125 2.875 -0.125 6 0 C6.66 0.66 7.32 1.32 8 2 C7.44444444 6.55555556 7.44444444 6.55555556 6 8 C4.00041636 8.04080783 1.99954746 8.04254356 0 8 C0 5.36 0 2.72 0 0 Z " fill="#A8A8A8" transform="translate(127,179)"/>
<path d="M0 0 C1.98 0 3.96 0 6 0 C6.625 1.8125 6.625 1.8125 7 4 C6.01 5.485 6.01 5.485 5 7 C3.35 6.67 1.7 6.34 0 6 C0 4.02 0 2.04 0 0 Z " fill="#CB9C1C" transform="translate(119,113)"/>
<path d="M0 0 C2.625 0.375 2.625 0.375 5 1 C5.042721 2.66611905 5.04063832 4.33382885 5 6 C4 7 4 7 1.4375 7.0625 C0.2309375 7.0315625 0.2309375 7.0315625 -1 7 C-1.625 4.625 -1.625 4.625 -2 2 C-1.34 1.34 -0.68 0.68 0 0 Z " fill="#CB9C1D" transform="translate(150,100)"/>
<path d="M0 0 C1.65 0 3.3 0 5 0 C5.38218767 1.65614657 5.71395102 3.32457024 6 5 C5 6 5 6 2.4375 6.0625 C1.2309375 6.0315625 1.2309375 6.0315625 0 6 C0 4.02 0 2.04 0 0 Z " fill="#B4B4B4" transform="translate(128,211)"/>
<path d="M0 0 C0.66 0.33 1.32 0.66 2 1 C-0.97 3.97 -3.94 6.94 -7 10 C-7.66 9.67 -8.32 9.34 -9 9 C-6 6 -3 3 0 0 Z " fill="#CBA02C" transform="translate(84,38)"/>
<path d="M0 0 C0.33 0 0.66 0 1 0 C1 2.31 1 4.62 1 7 C2.65 6.67 4.3 6.34 6 6 C4.71034824 7.37562854 3.37310707 8.70766393 2 10 C1.34 10 0.68 10 0 10 C0 6.7 0 3.4 0 0 Z " fill="#CBC3AE" transform="translate(120,16)"/>
<path d="M0 0 C0.80824219 0.10183594 1.61648437 0.20367187 2.44921875 0.30859375 C3.06410156 0.39238281 3.67898437 0.47617188 4.3125 0.5625 C4.3125 0.8925 4.3125 1.2225 4.3125 1.5625 C2.641875 1.7790625 2.641875 1.7790625 0.9375 2 C-2.50892047 2.34622035 -2.50892047 2.34622035 -4.6875 3.5625 C-4.6875 2.9025 -4.6875 2.2425 -4.6875 1.5625 C-5.6775 1.2325 -6.6675 0.9025 -7.6875 0.5625 C-4.59271121 -0.46909626 -3.16118607 -0.41232862 0 0 Z " fill="#CBA232" transform="translate(150.6875,93.4375)"/>
</svg>
