<?xml version="1.0" encoding="UTF-8"?>
<svg version="1.1" xmlns="http://www.w3.org/2000/svg" width="107" height="87">
<path d="M0 0 C35.31 0 70.62 0 107 0 C107 28.71 107 57.42 107 87 C71.69 87 36.38 87 0 87 C0 58.29 0 29.58 0 0 Z " fill="#FCFDFD" transform="translate(0,0)"/>
<path d="M0 0 C1.65 0 3.3 0 5 0 C5.33 0.99 5.66 1.98 6 3 C5.67 3.66 5.34 4.32 5 5 C6.65 4.67 8.3 4.34 10 4 C10.66 5.32 11.32 6.64 12 8 C13.299375 6.9790625 13.299375 6.9790625 14.625 5.9375 C18 4 18 4 21.125 4.0625 C23.97835754 4.99294268 25.76572655 6.02352733 28 8 C28.66 6.68 29.32 5.36 30 4 C30.7425 4.185625 31.485 4.37125 32.25 4.5625 C34.99006016 4.99841866 36.39020109 4.71994453 39 4 C39.66 4.33 40.32 4.66 41 5 C41 5.66 41 6.32 41 7 C41.99 6.34 42.98 5.68 44 5 C46.6875 4.875 46.6875 4.875 49 5 C49.99 8.465 49.99 8.465 51 12 C51 9.69 51 7.38 51 5 C52.32 5 53.64 5 55 5 C55.495 7.475 55.495 7.475 56 10 C56.103125 9.21625 56.20625 8.4325 56.3125 7.625 C57 5 57 5 60 3 C60 2.01 60 1.02 60 0 C61.32 0 62.64 0 64 0 C64 1.32 64 2.64 64 4 C65.1446875 3.505 65.1446875 3.505 66.3125 3 C69 2 69 2 72 2 C72 2.99 72 3.98 72 5 C73.65 5.33 75.3 5.66 77 6 C75.50163895 9.11198065 73.80066242 12.0534615 72 15 C72.66 15 73.32 15 74 15 C73.67 16.32 73.34 17.64 73 19 C67.31414667 20.05783318 61.95702792 19.94255966 56.18359375 19.64453125 C52.87380615 19.7439291 52.87380615 19.7439291 50.30859375 21.99609375 C45.47411932 24.92417567 41.15649507 24.43557274 35.625 24.25 C34.60277344 24.23195313 33.58054688 24.21390625 32.52734375 24.1953125 C30.01725251 24.14839491 27.50912236 24.08276729 25 24 C24.505 23.01 24.505 23.01 24 22 C27.96 21.505 27.96 21.505 32 21 C32.495 19.515 32.495 19.515 33 18 C33.99 17.67 34.98 17.34 36 17 C34.35 16.67 32.7 16.34 31 16 C31.495 17.98 31.495 17.98 32 20 C25.84765625 20.09765625 25.84765625 20.09765625 24 20 C23.67 19.67 23.34 19.34 23 19 C22.505 19.495 22.505 19.495 22 20 C18.33655389 20.13568319 15.49384279 20.16461426 12 19 C9.99568426 19.30631603 7.99587832 19.64281538 6 20 C4.05592048 20.07651913 2.10961922 20.10811623 0.1640625 20.09765625 C-0.89941406 20.09443359 -1.96289062 20.09121094 -3.05859375 20.08789062 C-4.15300781 20.07951172 -5.24742188 20.07113281 -6.375 20.0625 C-7.49261719 20.05798828 -8.61023438 20.05347656 -9.76171875 20.04882812 C-12.50786804 20.03709244 -15.25390586 20.02067363 -18 20 C-18.33 19.34 -18.66 18.68 -19 18 C-15.01803543 16.94595055 -12.01804691 17.15901344 -8 18 C-8 17.34 -8 16.68 -8 16 C-11.63 16 -15.26 16 -19 16 C-18.67 14.35 -18.34 12.7 -18 11 C-17.401875 11.165 -16.80375 11.33 -16.1875 11.5 C-13.88655664 12.1114124 -13.88655664 12.1114124 -11 12 C-12.65 10.68 -14.3 9.36 -16 8 C-15.25 3.25 -15.25 3.25 -13 1 C-10.72265625 0.734375 -10.72265625 0.734375 -8.0625 0.75 C-7.18722656 0.74484375 -6.31195313 0.7396875 -5.41015625 0.734375 C-3 1 -3 1 0 3 C0 2.01 0 1.02 0 0 Z " fill="#DD9298" transform="translate(25,63)"/>
<path d="M0 0 C0.99 0.33 1.98 0.66 3 1 C3.33694303 8.28795302 3.03499245 15.31650454 1.8125 22.5 C1.71155029 23.16966797 1.61060059 23.83933594 1.5065918 24.52929688 C0.59085188 29.43464945 -1.1913894 31.85548395 -5 35 C-7.53206392 36.65716379 -10.21745333 37.81830141 -13 39 C-13.67933594 39.30164062 -14.35867187 39.60328125 -15.05859375 39.9140625 C-21.40430479 42.40577289 -28.31118529 43.64846917 -35 42 C-38.20590024 39.10632657 -40.02018958 35.80123601 -42 32 C-42.79556554 30.78045043 -43.60479588 29.5694997 -44.4375 28.375 C-44.953125 27.59125 -45.46875 26.8075 -46 26 C-45.195625 25.70609375 -45.195625 25.70609375 -44.375 25.40625 C-31.42125334 20.46337299 -19.17613451 14.20143716 -8.12109375 5.81640625 C-7.13238281 5.07261719 -6.14367187 4.32882813 -5.125 3.5625 C-4.22007813 2.86253906 -3.31515625 2.16257812 -2.3828125 1.44140625 C-1.59648438 0.96574219 -0.81015625 0.49007813 0 0 Z " fill="#3687D9" transform="translate(78,3)"/>
<path d="M0 0 C1.32 0 2.64 0 4 0 C4 1.32 4 2.64 4 4 C4.763125 3.67 5.52625 3.34 6.3125 3 C9 2 9 2 12 2 C12 2.99 12 3.98 12 5 C14.475 5.495 14.475 5.495 17 6 C15.50163895 9.11198065 13.80066242 12.0534615 12 15 C12.66 15 13.32 15 14 15 C13.67 16.32 13.34 17.64 13 19 C7.31414667 20.05783318 1.95702792 19.94255966 -3.81640625 19.64453125 C-7.12619385 19.7439291 -7.12619385 19.7439291 -9.69140625 21.99609375 C-14.52588068 24.92417567 -18.84350493 24.43557274 -24.375 24.25 C-25.39722656 24.23195313 -26.41945313 24.21390625 -27.47265625 24.1953125 C-29.98274749 24.14839491 -32.49087764 24.08276729 -35 24 C-35.33 23.34 -35.66 22.68 -36 22 C-32.04 21.505 -32.04 21.505 -28 21 C-27.67 20.01 -27.34 19.02 -27 18 C-25.66666667 17.33333333 -24.33333333 16.66666667 -23 16 C-20.91689012 13.76258569 -20.07547865 12.39626292 -19.5 9.375 C-19 7 -19 7 -16 5 C-13.3125 4.875 -13.3125 4.875 -11 5 C-10.34 7.31 -9.68 9.62 -9 12 C-9 9.69 -9 7.38 -9 5 C-7.68 5 -6.36 5 -5 5 C-4.67 6.65 -4.34 8.3 -4 10 C-3.896875 9.21625 -3.79375 8.4325 -3.6875 7.625 C-3 5 -3 5 0 3 C0 2.01 0 1.02 0 0 Z " fill="#EDE4EA" transform="translate(85,63)"/>
<path d="M0 0 C4.88293202 4.45208508 9.52944286 9.93265415 11.80078125 16.21484375 C12.91643941 18.29840906 12.91643941 18.29840906 15.73046875 18.73046875 C28.52956721 19.78559156 36.48824954 18.50839319 47 11 C47.99 10.34 48.98 9.68 50 9 C48.6118221 12.27921616 47.12029985 13.97652627 44.25 16.0625 C43.59515625 16.54847656 42.9403125 17.03445312 42.265625 17.53515625 C35.76827556 21.73602874 31.22076783 22.39879454 23.625 22.1875 C22.69816406 22.17396484 21.77132812 22.16042969 20.81640625 22.14648438 C18.54366002 22.11133881 16.27214153 22.06214132 14 22 C14.03867187 23.42505859 14.03867187 23.42505859 14.078125 24.87890625 C14 28 14 28 12.75 29.9375 C11 31 11 31 9 30.875 C6.69634744 29.86715201 5.45206806 29.06346514 4 27 C4.16133896 24.41857664 4.79859974 23.24518293 6.4375 21.25 C8 20 8 20 10 20 C8.06199941 13.84399812 5.28904253 9.26857448 1.42578125 4.1015625 C0 2 0 2 0 0 Z " fill="#3787D9" transform="translate(30,34)"/>
<path d="M0 0 C0.763125 0.165 1.52625 0.33 2.3125 0.5 C5.0504374 1.0093837 6.38262452 0.72203461 9 0 C9.66 0.33 10.32 0.66 11 1 C11.48275862 7.27586207 11.48275862 7.27586207 9.375 10.4375 C6.397402 12.39644605 4.49644963 12.31785906 1 12 C1.33 13.32 1.66 14.64 2 16 C-0.64 16 -3.28 16 -6 16 C-5.19110952 13.51960151 -4.37808099 11.04069788 -3.5625 8.5625 C-3.33240234 7.85544922 -3.10230469 7.14839844 -2.86523438 6.41992188 C-1.11328125 1.11328125 -1.11328125 1.11328125 0 0 Z " fill="#2B4FAF" transform="translate(55,67)"/>
<path d="M0 0 C1.65 0 3.3 0 5 0 C5.33 0.99 5.66 1.98 6 3 C5.67 3.66 5.34 4.32 5 5 C6.2065625 4.7215625 6.2065625 4.7215625 7.4375 4.4375 C8.7059375 4.2209375 8.7059375 4.2209375 10 4 C11 5 11 5 11.1328125 7.25 C11.13023438 8.1575 11.12765625 9.065 11.125 10 C11.12886719 11.36125 11.12886719 11.36125 11.1328125 12.75 C11 15 11 15 10 16 C8.33382885 16.04063832 6.66611905 16.042721 5 16 C4.31292445 13.50935112 4 11.62113708 4 9 C3.34 11.31 2.68 13.62 2 16 C-0.31 16 -2.62 16 -5 16 C-4.72285156 15.34773438 -4.44570313 14.69546875 -4.16015625 14.0234375 C-2.22611598 9.35696311 -0.53366042 5.06977397 0 0 Z " fill="#0E37A4" transform="translate(25,63)"/>
<path d="M0 0 C0.90492187 0.02320313 1.80984375 0.04640625 2.7421875 0.0703125 C4.10730469 0.09738281 4.10730469 0.09738281 5.5 0.125 C6.19867188 0.14820313 6.89734375 0.17140625 7.6171875 0.1953125 C7.2871875 1.8453125 6.9571875 3.4953125 6.6171875 5.1953125 C3.6471875 4.7003125 3.6471875 4.7003125 0.6171875 4.1953125 C3.0921875 6.1753125 3.0921875 6.1753125 5.6171875 8.1953125 C5.2421875 11.1328125 5.2421875 11.1328125 4.6171875 14.1953125 C1.97260371 15.51760439 -0.06042551 15.29208444 -3.0078125 15.2578125 C-4.01070312 15.24878906 -5.01359375 15.23976563 -6.046875 15.23046875 C-6.81773438 15.21886719 -7.58859375 15.20726563 -8.3828125 15.1953125 C-8.0528125 13.5453125 -7.7228125 11.8953125 -7.3828125 10.1953125 C-6.7846875 10.3603125 -6.1865625 10.5253125 -5.5703125 10.6953125 C-3.26936914 11.3067249 -3.26936914 11.3067249 -0.3828125 11.1953125 C-2.0328125 9.8753125 -3.6828125 8.5553125 -5.3828125 7.1953125 C-4.30239292 0.35265516 -4.30239292 0.35265516 0 0 Z " fill="#0B34A3" transform="translate(14.3828125,63.8046875)"/>
<path d="M0 0 C2.75 0.875 2.75 0.875 4.75 1.875 C5.0625 4.625 5.0625 4.625 4.75 7.875 C1.93389986 11.11778198 0.35168034 11.81381217 -3.9375 12.25 C-7.25 11.875 -7.25 11.875 -9.25 9.875 C-9.75 7.5625 -9.75 7.5625 -9.25 4.875 C-4.63610662 -0.17831179 -4.63610662 -0.17831179 0 0 Z " fill="#3C5DB5" transform="translate(46.25,67.125)"/>
<path d="M0 0 C1.2065625 0.0309375 1.2065625 0.0309375 2.4375 0.0625 C3.0975 2.3725 3.7575 4.6825 4.4375 7.0625 C4.4375 4.7525 4.4375 2.4425 4.4375 0.0625 C5.7575 0.0625 7.0775 0.0625 8.4375 0.0625 C9.06013965 5.1681451 7.77580833 7.61142223 4.82421875 11.546875 C3.4375 13.0625 3.4375 13.0625 0.4375 15.0625 C-2.75 15.1875 -2.75 15.1875 -5.5625 15.0625 C-5.8925 13.7425 -6.2225 12.4225 -6.5625 11.0625 C-5.2425 11.0625 -3.9225 11.0625 -2.5625 11.0625 C-2.5625 11.7225 -2.5625 12.3825 -2.5625 13.0625 C-1.9025 13.0625 -1.2425 13.0625 -0.5625 13.0625 C-1.2225 12.0725 -1.8825 11.0825 -2.5625 10.0625 C-3.01171875 7.8359375 -3.01171875 7.8359375 -3.25 5.4375 C-3.33636719 4.64085938 -3.42273438 3.84421875 -3.51171875 3.0234375 C-3.53685547 2.05277344 -3.53685547 2.05277344 -3.5625 1.0625 C-2.5625 0.0625 -2.5625 0.0625 0 0 Z " fill="#1139A5" transform="translate(71.5625,67.9375)"/>
<path d="M0 0 C0 0.99 0 1.98 0 3 C0.66 3.33 1.32 3.66 2 4 C1.01 4.33 0.02 4.66 -1 5 C-1.54372951 8.05847848 -2 10.88772805 -2 14 C-3.98 14 -5.96 14 -8 14 C-8.28329101 10.29203542 -8.44731303 6.69851501 -8 3 C-5.17008851 0.3230567 -3.86319085 0 0 0 Z " fill="#1139A5" transform="translate(97,65)"/>
<path d="M0 0 C5.00313718 4.5616839 9.24139192 9.99934177 11.98046875 16.23046875 C12.31691406 16.81441406 12.65335938 17.39835937 13 18 C16.05908413 18.81584568 16.05908413 18.81584568 19 19 C19 19.33 19 19.66 19 20 C15.04 20.495 15.04 20.495 11 21 C11.33 21.33 11.66 21.66 12 22 C12.04080783 23.99958364 12.04254356 26.00045254 12 28 C10.68 28 9.36 28 8 28 C7.01879536 24.94736336 7.01879536 23.05263664 8 20 C8.66 20 9.32 20 10 20 C8.06199941 13.84399812 5.28904253 9.26857448 1.42578125 4.1015625 C0 2 0 2 0 0 Z " fill="#599CE0" transform="translate(30,34)"/>
<path d="M0 0 C0.99 0.33 1.98 0.66 3 1 C3.144375 2.093125 3.28875 3.18625 3.4375 4.3125 C3.88288104 7.93122987 3.88288104 7.93122987 5 11 C4.34 11 3.68 11 3 11 C3 10.34 3 9.68 3 9 C1.68 9 0.36 9 -1 9 C-1.33 10.32 -1.66 11.64 -2 13 C-3.65 13 -5.3 13 -7 13 C-7.33 14.32 -7.66 15.64 -8 17 C-10.64 17 -13.28 17 -16 17 C-16.33 16.34 -16.66 15.68 -17 15 C-14.36 14.67 -11.72 14.34 -9 14 C-8.67 13.01 -8.34 12.02 -8 11 C-6.66666667 10.33333333 -5.33333333 9.66666667 -4 9 C-1.36072809 6.16522647 -0.52956003 3.81283223 0 0 Z " fill="#D7DBED" transform="translate(66,70)"/>
<path d="M0 0 C0.495 1.485 0.495 1.485 1 3 C-3.40043608 6.00347224 -8.56414762 5.03603842 -13.625 4.74609375 C-19.00655607 4.58445691 -21.59835687 5.65318851 -26 9 C-28.875 9.25 -28.875 9.25 -31 9 C-31.33 8.34 -31.66 7.68 -32 7 C-30.741875 6.71125 -29.48375 6.4225 -28.1875 6.125 C-25.1460601 5.42696461 -23.69330122 4.79553415 -21 3 C-19.0546875 2.71289062 -19.0546875 2.71289062 -16.875 2.65625 C-16.08609375 2.62660156 -15.2971875 2.59695312 -14.484375 2.56640625 C-12 2.5 -12 2.5 -9.515625 2.43359375 C-8.72671875 2.40394531 -7.9378125 2.37429687 -7.125 2.34375 C-6.40570313 2.32505859 -5.68640625 2.30636719 -4.9453125 2.28710938 C-2.67820334 2.09405212 -2.67820334 2.09405212 0 0 Z " fill="#D02B2C" transform="translate(98,78)"/>
<path d="M0 0 C1.32 0.33 2.64 0.66 4 1 C4.02688151 2.64574566 4.04634123 4.29161413 4.0625 5.9375 C4.07410156 6.85402344 4.08570313 7.77054687 4.09765625 8.71484375 C4 11 4 11 3 12 C1.33382885 12.04063832 -0.33388095 12.042721 -2 12 C-3.12377697 8.69564916 -2.89554742 6.9493138 -1.5625 3.75 C-1.27503906 3.04359375 -0.98757812 2.3371875 -0.69140625 1.609375 C-0.46324219 1.07828125 -0.23507813 0.5471875 0 0 Z " fill="#173EA7" transform="translate(32,67)"/>
<path d="M0 0 C1.98 0 3.96 0 6 0 C5.40049704 3.68266103 4.75241109 7.34543185 4 11 C1.69 11 -0.62 11 -3 11 C-2.690625 10.484375 -2.38125 9.96875 -2.0625 9.4375 C-0.70940713 6.33334577 -0.38640576 3.34884993 0 0 Z " fill="#0C35A3" transform="translate(82,68)"/>
<path d="M0 0 C1.32 0 2.64 0 4 0 C4.48514851 6.30693069 4.48514851 6.30693069 2.25 9.5 C1.5075 9.995 0.765 10.49 0 11 C-1.32 10.67 -2.64 10.34 -4 10 C-2.68 6.7 -1.36 3.4 0 0 Z " fill="#0A33A3" transform="translate(62,68)"/>
<path d="M0 0 C2.31 0.33 4.62 0.66 7 1 C7.3125 3.75 7.3125 3.75 7 7 C4.6875 9.4375 4.6875 9.4375 2 11 C1.01 10.67 0.02 10.34 -1 10 C-0.01 7.03 0.98 4.06 2 1 C1.34 0.67 0.68 0.34 0 0 Z " fill="#0E37A4" transform="translate(44,68)"/>
<path d="M0 0 C0.66 0.33 1.32 0.66 2 1 C5.37822416 1.14375422 7.77390955 1.07536348 11 0 C10.67 0.99 10.34 1.98 10 3 C6.4375 4.1875 6.4375 4.1875 3 5 C3 5.33 3 5.66 3 6 C0.03 6 -2.94 6 -6 6 C-5.67 4.68 -5.34 3.36 -5 2 C-3.35 2 -1.7 2 0 2 C0 1.34 0 0.68 0 0 Z " fill="#F6E8EA" transform="translate(64,81)"/>
<path d="M0 0 C5.35048061 0.37328935 7.50912907 1.9957657 11 6 C7.7 6 4.4 6 1 6 C0.34 4.68 -0.32 3.36 -1 2 C-0.67 1.34 -0.34 0.68 0 0 Z " fill="#5197DE" transform="translate(9,18)"/>
<path d="M0 0 C1.32 0 2.64 0 4 0 C4 1.32 4 2.64 4 4 C4.99 4.33 5.98 4.66 7 5 C6.01 5.495 6.01 5.495 5 6 C4.53348793 8.12576782 4.53348793 8.12576782 4.375 10.5625 C4.30023438 11.38878906 4.22546875 12.21507813 4.1484375 13.06640625 C4.09945312 13.70449219 4.05046875 14.34257813 4 15 C3.01 15.33 2.02 15.66 1 16 C2 8.57142857 2 8.57142857 3 5 C1.68 4.67 0.36 4.34 -1 4 C-0.67 2.68 -0.34 1.36 0 0 Z " fill="#8FA2D5" transform="translate(85,63)"/>
<path d="M0 0 C2 3 2 3 1.375 6.5625 C0 10 0 10 -1.6875 11.4375 C-4.82900232 12.20164921 -7.78210078 12.12376535 -11 12 C-11.33 11.34 -11.66 10.68 -12 10 C-9.36 9.67 -6.72 9.34 -4 9 C-4.33 8.34 -4.66 7.68 -5 7 C-4.360625 6.5875 -3.72125 6.175 -3.0625 5.75 C-0.79009069 3.82189513 -0.39803561 2.88575819 0 0 Z " fill="#DB99A1" transform="translate(51,71)"/>
<path d="M0 0 C0 3 0 3 -1.25 4.46484375 C-11.39257294 13 -11.39257294 13 -17 13 C-17 12.01 -17 11.02 -17 10 C-16.12988281 9.63648438 -16.12988281 9.63648438 -15.2421875 9.265625 C-9.57351466 6.83352114 -4.41362684 4.41362684 0 0 Z " fill="#5699DF" transform="translate(79,43)"/>
<path d="M0 0 C0.90492187 0.02320313 1.80984375 0.04640625 2.7421875 0.0703125 C4.10730469 0.09738281 4.10730469 0.09738281 5.5 0.125 C6.19867188 0.14820313 6.89734375 0.17140625 7.6171875 0.1953125 C7.2871875 1.8453125 6.9571875 3.4953125 6.6171875 5.1953125 C5.5034375 4.8653125 4.3896875 4.5353125 3.2421875 4.1953125 C-0.07740967 3.1066695 -0.07740967 3.1066695 -2.3828125 3.1953125 C-4.01957507 5.1553406 -4.01957507 5.1553406 -5.3828125 7.1953125 C-4.30239292 0.35265516 -4.30239292 0.35265516 0 0 Z " fill="#2A4EAF" transform="translate(14.3828125,63.8046875)"/>
<path d="M0 0 C2.64 0 5.28 0 8 0 C5 2 5 2 2 2 C1.67 3.32 1.34 4.64 1 6 C-3.455 6.495 -3.455 6.495 -8 7 C-8 6.34 -8 5.68 -8 5 C-5.36 4.34 -2.72 3.68 0 3 C0 2.01 0 1.02 0 0 Z " fill="#EDE4EB" transform="translate(56,79)"/>
<path d="M0 0 C0.99 0.33 1.98 0.66 3 1 C2.42655063 3.86724686 2.1385485 4.8614515 0 7 C-6.875 4.25 -6.875 4.25 -8 2 C-3.25 2.875 -3.25 2.875 -1 4 C-0.67 2.68 -0.34 1.36 0 0 Z " fill="#D9DEF0" transform="translate(22,65)"/>
<path d="M0 0 C1.32 0.33 2.64 0.66 4 1 C3.34 2.98 2.68 4.96 2 7 C4.97 7.495 4.97 7.495 8 8 C8 8.33 8 8.66 8 9 C4.7 9 1.4 9 -2 9 C-2 8.34 -2 7.68 -2 7 C-1.34 7 -0.68 7 0 7 C0 4.69 0 2.38 0 0 Z " fill="#EBEBF4" transform="translate(19,71)"/>
<path d="M0 0 C1.65 0 3.3 0 5 0 C4.67 0.66 4.34 1.32 4 2 C3.01 2 2.02 2 1 2 C0.67 3.32 0.34 4.64 0 6 C-2.64 6 -5.28 6 -8 6 C-8.33 5.34 -8.66 4.68 -9 4 C-6.36 3.67 -3.72 3.34 -1 3 C-0.67 2.01 -0.34 1.02 0 0 Z " fill="#D23435" transform="translate(58,81)"/>
<path d="M0 0 C0.33 0.66 0.66 1.32 1 2 C-1.16798732 7.4770206 -1.16798732 7.4770206 -4.1875 9.375 C-4.785625 9.58125 -5.38375 9.7875 -6 10 C-5.58578031 5.16743695 -3.53586014 3.17320782 0 0 Z " fill="#D7CFDF" transform="translate(81,73)"/>
<path d="M0 0 C-1.04874998 2.62187494 -1.64931313 3.79371361 -4.125 5.25 C-4.74375 5.4975 -5.3625 5.745 -6 6 C-6.33 5.01 -6.66 4.02 -7 3 C-4.49955934 -0.00052879 -4.2621484 0 0 0 Z " fill="#E5989A" transform="translate(102,69)"/>
<path d="M0 0 C1.10868317 3.32604951 1.54177532 6.53058454 2 10 C0.0625 9.3125 0.0625 9.3125 -2 8 C-2.9375 5.5625 -2.9375 5.5625 -3 3 C-1.5625 1.1875 -1.5625 1.1875 0 0 Z " fill="#4B93DD" transform="translate(37,55)"/>
<path d="M0 0 C1.32 0 2.64 0 4 0 C4 1.65 4 3.3 4 5 C2.68 5 1.36 5 0 5 C-0.5625 3.0625 -0.5625 3.0625 -1 1 C-0.67 0.67 -0.34 0.34 0 0 Z " fill="#EAF3FB" transform="translate(38,57)"/>
<path d="M0 0 C1.32 0 2.64 0 4 0 C4 0.66 4 1.32 4 2 C4.66 2 5.32 2 6 2 C6.33 1.34 6.66 0.68 7 0 C7 1.32 7 2.64 7 4 C5.02 4 3.04 4 1 4 C0.67 2.68 0.34 1.36 0 0 Z " fill="#173EA8" transform="translate(65,79)"/>
<path d="M0 0 C0.66 0.66 1.32 1.32 2 2 C3.98821313 2.39764263 5.98944339 2.73775349 8 3 C8 3.33 8 3.66 8 4 C5.36 4.33 2.72 4.66 0 5 C0.33 5.66 0.66 6.32 1 7 C-0.32 7 -1.64 7 -3 7 C-3 6.01 -3 5.02 -3 4 C-2.34 4 -1.68 4 -1 4 C-0.67 2.68 -0.34 1.36 0 0 Z " fill="#71AAE4" transform="translate(41,50)"/>
<path d="M0 0 C1.98 0.495 1.98 0.495 4 1 C4 1.99 4 2.98 4 4 C2.35 4.33 0.7 4.66 -1 5 C-0.67 3.35 -0.34 1.7 0 0 Z " fill="#1E44AA" transform="translate(7,74)"/>
<path d="M0 0 C0.33 0.99 0.66 1.98 1 3 C1.66 3.33 2.32 3.66 3 4 C2.01 4 1.02 4 0 4 C-0.33 5.32 -0.66 6.64 -1 8 C-1.66 7.67 -2.32 7.34 -3 7 C-3 3.48283697 -2.17554415 2.62878252 0 0 Z " fill="#D3CADB" transform="translate(65,75)"/>
</svg>
