<?xml version="1.0" encoding="UTF-8"?>
<svg version="1.1" xmlns="http://www.w3.org/2000/svg" width="110" height="92">
<path d="M0 0 C36.3 0 72.6 0 110 0 C110 30.36 110 60.72 110 92 C73.7 92 37.4 92 0 92 C0 61.64 0 31.28 0 0 Z " fill="#FEFCFB" transform="translate(0,0)"/>
<path d="M0 0 C6.04358985 -0.32248404 10.80745507 -0.54612824 16 3 C18.33121695 5.33121695 18.98176144 6.31706731 19.0703125 9.6328125 C19.04710938 10.41398438 19.02390625 11.19515625 19 12 C19.59941406 12.03738281 20.19882812 12.07476562 20.81640625 12.11328125 C37.47566148 13.32184742 54.02087862 15.90717032 70.48706055 18.6418457 C75.00081325 19.38703548 79.48544592 20.07776825 84.0390625 20.52734375 C87.93164289 20.99184299 89.94254044 21.61135972 93 24 C95.06699189 28.13398378 94.10781525 33.47175948 94 38 C93.97486328 39.73636719 93.97486328 39.73636719 93.94921875 41.5078125 C93.56335989 51.1873577 93.56335989 51.1873577 90.5625 54.25 C87.06415204 56.63911568 85.21469881 57.1488589 81.0234375 57.31640625 C79.45057983 57.38009399 79.45057983 57.38009399 77.84594727 57.44506836 C72.25896731 57.63409117 66.67191645 57.80081422 61.08355713 57.94348145 C58.9400286 58.00162678 56.79698687 58.06983807 54.65380859 58.13964844 C51.00224533 58.25555307 47.35121127 58.33691104 43.69830322 58.39596558 C42.27842548 58.42357758 40.85871009 58.46154641 39.43939209 58.51004028 C37.44080244 58.5758023 35.44095885 58.59930806 33.44140625 58.62109375 C32.29357666 58.6461499 31.14574707 58.67120605 29.96313477 58.69702148 C27 58 27 58 24.72241211 55.5949707 C22.54628816 51.05302525 21.75867287 46.80960774 21 41.859375 C20.66676154 39.8827965 20.33342533 37.90623448 20 35.9296875 C19.49493521 32.82728756 18.99584702 29.72400331 18.5 26.62011719 C18.01460797 23.61390989 17.5082076 20.61179544 17 17.609375 C16.85820312 16.67607361 16.71640625 15.74277222 16.5703125 14.78118896 C16.34988281 13.48909515 16.34988281 13.48909515 16.125 12.17089844 C16.00382812 11.41178162 15.88265625 10.65266479 15.7578125 9.87054443 C15.13887085 7.83441534 15.13887085 7.83441534 13.10449219 6.75152588 C10.39503608 5.78396402 8.11921833 5.80668528 5.25 5.875 C4.26515625 5.89304687 3.2803125 5.91109375 2.265625 5.9296875 C1.51796875 5.95289063 0.7703125 5.97609375 0 6 C-1.125 2.25 -1.125 2.25 0 0 Z " fill="#DB7024" transform="translate(5,4)"/>
<path d="M0 0 C2 1.625 2 1.625 3 4 C2.93439072 7.739729 2.76345433 10.0603639 0.375 13 C-3.11581787 14.46981805 -5.39148956 13.98413921 -9 13 C-11 11.375 -11 11.375 -12 9 C-11.93439072 5.260271 -11.76345433 2.9396361 -9.375 0 C-5.88418213 -1.46981805 -3.60851044 -0.98413921 0 0 Z " fill="#DB7329" transform="translate(41,72)"/>
<path d="M0 0 C2.875 2.0625 2.875 2.0625 5 5 C5.06641554 8.85210127 4.87229157 10.99848005 2.3125 13.9375 C-0.76819895 15.35295627 -2.64720251 15.55879958 -6 15 C-8.4375 12.9375 -8.4375 12.9375 -10 10 C-10 6.15050705 -9.86589381 3.95866815 -7.25 1.0625 C-4.45370167 -0.25797421 -3.05488134 -0.59607441 0 0 Z " fill="#DB7126" transform="translate(88,71)"/>
<path d="M0 0 C1.794375 0.144375 3.58875 0.28875 5.4375 0.4375 C6.95150391 0.55931641 6.95150391 0.55931641 8.49609375 0.68359375 C11 1 11 1 12 2 C12.46212633 5.6570738 12.70429173 9.32476863 13 13 C9.37 13 5.74 13 2 13 C1.34 8.71 0.68 4.42 0 0 Z " fill="#FBF2EB" transform="translate(25,19)"/>
<path d="M0 0 C4.82360189 -0.19294408 8.49646738 0.24252386 13 2 C13 4.64 13 7.28 13 10 C9.04 10 5.08 10 1 10 C0.67 6.7 0.34 3.4 0 0 Z " fill="#FCF5F0" transform="translate(40,22)"/>
<path d="M0 0 C3.96 0 7.92 0 12 0 C12.33 3.3 12.66 6.6 13 10 C9.37 10 5.74 10 2 10 C1.34 6.7 0.68 3.4 0 0 Z " fill="#FEFCFB" transform="translate(42,35)"/>
<path d="M0 0 C3.96 0 7.92 0 12 0 C12 3.3 12 6.6 12 10 C8.37 10 4.74 10 1 10 C0.67 6.7 0.34 3.4 0 0 Z " fill="#FEFBF9" transform="translate(57,35)"/>
<path d="M0 0 C3.63 0 7.26 0 11 0 C11 3.3 11 6.6 11 10 C7.37 10 3.74 10 0 10 C0 6.7 0 3.4 0 0 Z " fill="#FDFAF8" transform="translate(72,35)"/>
<path d="M0 0 C3.63 0 7.26 0 11 0 C11.33 3.3 11.66 6.6 12 10 C6.04316547 10.43165468 6.04316547 10.43165468 3 10 C-0.25396819 6.54882162 0 4.87553074 0 0 Z " fill="#FDF9F6" transform="translate(31,49)"/>
<path d="M0 0 C3.63 0 7.26 0 11 0 C11.33 3.3 11.66 6.6 12 10 C8.7 10 5.4 10 2 10 C1.34 6.7 0.68 3.4 0 0 Z " fill="#FEFBF9" transform="translate(28,35)"/>
<path d="M0 0 C3.63 0 7.26 0 11 0 C11.33 3.3 11.66 6.6 12 10 C8.37 10 4.74 10 1 10 C0.67 6.7 0.34 3.4 0 0 Z " fill="#FDF9F6" transform="translate(45,49)"/>
<path d="M0 0 C3.4375 0.1875 3.4375 0.1875 4.4375 1.1875 C4.5625 4.6875 4.5625 4.6875 4.4375 8.1875 C3.4375 9.1875 3.4375 9.1875 0.375 9.25 C-0.594375 9.229375 -1.56375 9.20875 -2.5625 9.1875 C-2.5625 10.1775 -2.5625 11.1675 -2.5625 12.1875 C-3.5525 12.1875 -4.5425 12.1875 -5.5625 12.1875 C-5.61645478 10.56286158 -5.65527195 8.93771459 -5.6875 7.3125 C-5.71070313 6.40757813 -5.73390625 5.50265625 -5.7578125 4.5703125 C-5.41849711 0.43066475 -3.96987216 0.20894064 0 0 Z " fill="#DF6363" transform="translate(69.5625,5.8125)"/>
<path d="M0 0 C3.63 0 7.26 0 11 0 C11 2.97 11 5.94 11 9 C7.7 9 4.4 9 1 9 C0.67 6.03 0.34 3.06 0 0 Z " fill="#FEFCFA" transform="translate(59,49)"/>
<path d="M0 0 C9.57 0 19.14 0 29 0 C29.33 0.99 29.66 1.98 30 3 C20.1 3 10.2 3 0 3 C0 2.01 0 1.02 0 0 Z " fill="#D86513" transform="translate(46,77)"/>
<path d="M0 0 C3.96 0.33 7.92 0.66 12 1 C12 3.31 12 5.62 12 8 C10.18757948 8.02687279 8.37504767 8.04633715 6.5625 8.0625 C5.55316406 8.07410156 4.54382812 8.08570313 3.50390625 8.09765625 C1 8 1 8 0 7 C-0.04092937 4.66702567 -0.04241723 2.33294775 0 0 Z " fill="#FCF4EF" transform="translate(56,24)"/>
<path d="M0 0 C2.97 0 5.94 0 9 0 C8.67 3.3 8.34 6.6 8 10 C5.36 10 2.72 10 0 10 C0 6.7 0 3.4 0 0 Z " fill="#FEFCFB" transform="translate(87,35)"/>
<path d="M0 0 C3.5625 0.1875 3.5625 0.1875 5.5625 2.1875 C5.6875 5.3125 5.6875 5.3125 5.5625 8.1875 C2.58037087 9.67856457 -0.15359658 9.30691467 -3.4375 9.1875 C-4.4375 8.1875 -4.4375 8.1875 -4.5625 4.6875 C-4.40366786 0.24020007 -4.40366786 0.24020007 0 0 Z " fill="#D84141" transform="translate(57.4375,5.8125)"/>
<path d="M0 0 C1.23556641 0.01740234 1.23556641 0.01740234 2.49609375 0.03515625 C3.32238281 0.04417969 4.14867187 0.05320313 5 0.0625 C5.63808594 0.07410156 6.27617188 0.08570313 6.93359375 0.09765625 C6.93359375 0.75765625 6.93359375 1.41765625 6.93359375 2.09765625 C3.85742188 2.390625 3.85742188 2.390625 0.78125 2.68359375 C0.17152344 2.82023438 -0.43820313 2.956875 -1.06640625 3.09765625 C-1.39640625 3.75765625 -1.72640625 4.41765625 -2.06640625 5.09765625 C-0.14828125 5.06671875 -0.14828125 5.06671875 1.80859375 5.03515625 C5.68359375 4.97265625 5.68359375 4.97265625 7.93359375 6.09765625 C7.93359375 7.74765625 7.93359375 9.39765625 7.93359375 11.09765625 C5.40883913 12.36003356 3.62158909 12.19622029 0.80859375 12.16015625 C-0.10148437 12.15113281 -1.0115625 12.14210938 -1.94921875 12.1328125 C-2.64789062 12.12121094 -3.3465625 12.10960937 -4.06640625 12.09765625 C-4.06640625 11.43765625 -4.06640625 10.77765625 -4.06640625 10.09765625 C-1.09640625 10.09765625 1.87359375 10.09765625 4.93359375 10.09765625 C4.93359375 9.10765625 4.93359375 8.11765625 4.93359375 7.09765625 C3.26296875 7.15953125 3.26296875 7.15953125 1.55859375 7.22265625 C-2.06640625 7.09765625 -2.06640625 7.09765625 -4.06640625 5.09765625 C-3.31779097 0.15679541 -3.31779097 0.15679541 0 0 Z " fill="#D53131" transform="translate(32.06640625,2.90234375)"/>
<path d="M0 0 C2.97 0 5.94 0 9 0 C9 2.64 9 5.28 9 8 C6.03 8 3.06 8 0 8 C0 5.36 0 2.72 0 0 Z " fill="#FFFFFF" transform="translate(74,49)"/>
<path d="M0 0 C0.99 0 1.98 0 3 0 C3 4.29 3 8.58 3 13 C2.01 13 1.02 13 0 13 C0 11.02 0 9.04 0 7 C-3.3 6.67 -6.6 6.34 -10 6 C-9.67 5.01 -9.34 4.02 -9 3 C-6.36 3 -3.72 3 -1 3 C-0.67 2.01 -0.34 1.02 0 0 Z " fill="#EFB0B0" transform="translate(40,2)"/>
<path d="M0 0 C0.66 0 1.32 0 2 0 C2 2.31 2 4.62 2 7 C3.65 7 5.3 7 7 7 C7 4.69 7 2.38 7 0 C7.99 0 8.98 0 10 0 C10.05391993 1.79133978 10.09275571 3.58313899 10.125 5.375 C10.14820312 6.37273438 10.17140625 7.37046875 10.1953125 8.3984375 C10 11 10 11 8 13 C5.375 13.125 5.375 13.125 3 13 C3 12.34 3 11.68 3 11 C4.32 11 5.64 11 7 11 C7 10.34 7 9.68 7 9 C5.5459375 9.0309375 5.5459375 9.0309375 4.0625 9.0625 C1 9 1 9 0 8 C-0.14115161 5.32941149 -0.04247107 2.67567762 0 0 Z " fill="#DD5959" transform="translate(76,6)"/>
<path d="M0 0 C1.6254308 0.14095064 3.25034051 0.28792087 4.875 0.4375 C5.77992187 0.51871094 6.68484375 0.59992187 7.6171875 0.68359375 C10 1 10 1 12 2 C12 3.32 12 4.64 12 6 C8.04 6 4.08 6 0 6 C0 4.02 0 2.04 0 0 Z " fill="#FAEEE6" transform="translate(71,26)"/>
<path d="M0 0 C2.31 0 4.62 0 7 0 C7.125 2.875 7.125 2.875 7 6 C5 8 5 8 2.375 8.125 C1.59125 8.08375 0.8075 8.0425 0 8 C0 5.36 0 2.72 0 0 Z " fill="#FEFBFA" transform="translate(87,49)"/>
<path d="M0 0 C2.5 0.125 2.5 0.125 3.5 1.125 C3.6875 3.5625 3.6875 3.5625 3.5 6.125 C2.84 6.785 2.18 7.445 1.5 8.125 C-1.43453261 7.75818342 -2.36437246 7.26062754 -4.5 5.125 C-3.7519084 0.18759542 -3.7519084 0.18759542 0 0 Z " fill="#FBF2EB" transform="translate(85.5,74.875)"/>
<path d="M0 0 C2.5 0.125 2.5 0.125 3.5 1.125 C3.6875 3.5625 3.6875 3.5625 3.5 6.125 C2.84 6.785 2.18 7.445 1.5 8.125 C-2.03571429 7.58928571 -2.03571429 7.58928571 -3.5 6.125 C-3.625 3.625 -3.625 3.625 -3.5 1.125 C-2.5 0.125 -2.5 0.125 0 0 Z " fill="#FDF6F2" transform="translate(36.5,74.875)"/>
<path d="M0 0 C0.66 0 1.32 0 2 0 C2 0.99 2 1.98 2 3 C3.32 3 4.64 3 6 3 C6 3.66 6 4.32 6 5 C4.68 5 3.36 5 2 5 C2 7.31 2 9.62 2 12 C1.34 12 0.68 12 0 12 C0 9.69 0 7.38 0 5 C-0.99 5 -1.98 5 -3 5 C-3 4.34 -3 3.68 -3 3 C-2.01 3 -1.02 3 0 3 C0 2.01 0 1.02 0 0 Z " fill="#D73C3C" transform="translate(94,3)"/>
<path d="M0 0 C1.99954746 -0.04254356 4.00041636 -0.04080783 6 0 C7 1 7 1 7.125 4.5 C7 8 7 8 6 9 C4.33382885 9.04063832 2.66611905 9.042721 1 9 C1 8.34 1 7.68 1 7 C2.32 7 3.64 7 5 7 C5 5.35 5 3.7 5 2 C3.02 2 1.04 2 -1 2 C-0.67 1.34 -0.34 0.68 0 0 Z " fill="#D63333" transform="translate(67,6)"/>
<path d="M0 0 C0.33 0 0.66 0 1 0 C1 1.65 1 3.3 1 5 C-1.52475462 6.26237731 -3.31200466 6.09856404 -6.125 6.0625 C-7.03507812 6.05347656 -7.94515625 6.04445313 -8.8828125 6.03515625 C-9.58148437 6.02355469 -10.28015625 6.01195312 -11 6 C-11 5.34 -11 4.68 -11 4 C-8.03 4 -5.06 4 -2 4 C-1.67 3.01 -1.34 2.02 -1 1 C-0.67 0.67 -0.34 0.34 0 0 Z " fill="#D94545" transform="translate(39,9)"/>
<path d="M0 0 C1.99954746 -0.04254356 4.00041636 -0.04080783 6 0 C7 1 7 1 7.09765625 2.84765625 C7.06510417 4.8984375 7.03255208 6.94921875 7 9 C6.34 9 5.68 9 5 9 C5 6.69 5 4.38 5 2 C3.35 2 1.7 2 0 2 C0 1.34 0 0.68 0 0 Z " fill="#D73B3B" transform="translate(44,6)"/>
<path d="M0 0 C1.65 0 3.3 0 5 0 C5 1.65 5 3.3 5 5 C3.35 5 1.7 5 0 5 C0 3.35 0 1.7 0 0 Z " fill="#FEFAFA" transform="translate(67,8)"/>
<path d="M0 0 C1.65 0 3.3 0 5 0 C5 1.65 5 3.3 5 5 C3.35 5 1.7 5 0 5 C0 3.35 0 1.7 0 0 Z " fill="#FEFBFB" transform="translate(55,8)"/>
<path d="M0 0 C0.66 0 1.32 0 2 0 C2 2.31 2 4.62 2 7 C3.32 7 4.64 7 6 7 C6 7.66 6 8.32 6 9 C4.33388095 9.042721 2.66617115 9.04063832 1 9 C0 8 0 8 -0.09765625 6.15234375 C-0.06510417 4.1015625 -0.03255208 2.05078125 0 0 Z " fill="#D63838" transform="translate(76,6)"/>
<path d="M0 0 C2.31 0 4.62 0 7 0 C7.33 0.99 7.66 1.98 8 3 C5.36 3 2.72 3 0 3 C0 2.01 0 1.02 0 0 Z " fill="#FAEDE4" transform="translate(87,29)"/>
</svg>
